<svg width="71" height="24" viewBox="0 0 71 24" fill="none" xmlns="http://www.w3.org/2000/svg">
<g filter="url(#filter0_b_87_159)">
<rect x="0.5" width="70" height="24" rx="12" fill="url(#paint0_radial_87_159)" fill-opacity="0.2"/>
<rect x="1" y="0.5" width="69" height="23" rx="11.5" stroke="url(#paint1_radial_87_159)"/>
<rect x="1" y="0.5" width="69" height="23" rx="11.5" stroke="url(#paint2_radial_87_159)"/>
<path d="M18.375 15.75V15.125H17.75V14.5H17.125V8.25H17.75V7.625H18.375V7H22.125V7.625H22.75V8.25H23.375V9.5H22.125V8.875H21.5V8.25H19V8.875H18.375V13.875H19V14.5H21.5V13.875H22.125V13.25H23.375V14.5H22.75V15.125H22.125V15.75H18.375ZM25.875 15.75V14.5H27.125V8.25H25.875V7H28.375V14.5H29.625V15.75H25.875ZM36.5 14.5V13.875H37.125V10.75H36.5V10.125H34V10.75H33.375V13.875H34V14.5H36.5ZM33.375 15.75V15.125H32.75V14.5H32.125V10.125H32.75V9.5H33.375V8.875H36.5V9.5H37.125V8.875H38.375V15.75H37.125V15.125H36.5V15.75H33.375ZM40.875 15.75V14.5H42.125V10.125H40.875V8.875H43.375V14.5H44.625V15.75H40.875ZM42.125 8.25V7H43.375V8.25H42.125ZM47.125 15.75V8.875H48.375V9.5H49V8.875H50.25V9.5H50.875V8.875H52.125V9.5H52.75V10.125H53.375V15.75H52.125V10.75H51.5V10.125H50.875V15.75H49.625V10.125H49V10.75H48.375V15.75H47.125Z" fill="#00D98E"/>
</g>
<defs>
<filter id="filter0_b_87_159" x="-50.7103" y="-51.2103" width="172.421" height="126.421" filterUnits="userSpaceOnUse" color-interpolation-filters="sRGB">
<feFlood flood-opacity="0" result="BackgroundImageFix"/>
<feGaussianBlur in="BackgroundImageFix" stdDeviation="25.6051"/>
<feComposite in2="SourceAlpha" operator="in" result="effect1_backgroundBlur_87_159"/>
<feBlend mode="normal" in="SourceGraphic" in2="effect1_backgroundBlur_87_159" result="shape"/>
</filter>
<radialGradient id="paint0_radial_87_159" cx="0" cy="0" r="1" gradientUnits="userSpaceOnUse" gradientTransform="translate(11.2236 5.04989) rotate(18.7925) scale(66.6633 44.0548)">
<stop stop-color="#00D98E"/>
<stop offset="0.770833" stop-color="#00D98E" stop-opacity="0.223958"/>
<stop offset="1" stop-color="#00D98E" stop-opacity="0"/>
</radialGradient>
<radialGradient id="paint1_radial_87_159" cx="0" cy="0" r="1" gradientUnits="userSpaceOnUse" gradientTransform="translate(-9.12842 -2.96747) rotate(17.2702) scale(58.9211 66.1387)">
<stop stop-color="#00D98E"/>
<stop offset="1" stop-color="#00D98E" stop-opacity="0"/>
</radialGradient>
<radialGradient id="paint2_radial_87_159" cx="0" cy="0" r="1" gradientUnits="userSpaceOnUse" gradientTransform="translate(76.2953 27.0195) rotate(-159.856) scale(56.2365 66.4955)">
<stop stop-color="#00D98E"/>
<stop offset="1" stop-color="#00D98E" stop-opacity="0"/>
</radialGradient>
</defs>
</svg>
