<svg width="21" height="16" viewBox="0 0 21 16" fill="none" xmlns="http://www.w3.org/2000/svg">
<path d="M17.77 1.33C16.44 0.71 15 0.26 13.5 0C13.4736 0.000375705 13.4485 0.0111588 13.43 0.0300002C13.25 0.36 13.04 0.79 12.9 1.12C11.309 0.880151 9.69101 0.880151 8.1 1.12C7.96 0.78 7.75 0.36 7.56 0.0300002C7.55 0.0100002 7.52 0 7.49 0C5.99 0.26 4.56 0.71 3.22 1.33C3.21 1.33 3.2 1.34 3.19 1.35C0.469995 5.42 -0.280005 9.38 0.0899952 13.3C0.0899952 13.32 0.0999951 13.34 0.119995 13.35C1.92 14.67 3.65 15.47 5.36 16C5.39 16.01 5.41999 16 5.43 15.98C5.83 15.43 6.19 14.85 6.5 14.24C6.52 14.2 6.5 14.16 6.46 14.15C5.89 13.93 5.35 13.67 4.82 13.37C4.78 13.35 4.77999 13.29 4.81 13.26C4.92 13.18 5.02999 13.09 5.14 13.01C5.16 12.99 5.19 12.99 5.21 13C8.65 14.57 12.36 14.57 15.76 13C15.78 12.99 15.81 12.99 15.83 13.01C15.94 13.1 16.05 13.18 16.16 13.27C16.2 13.3 16.2 13.36 16.15 13.38C15.63 13.69 15.08 13.94 14.51 14.16C14.47 14.17 14.46 14.22 14.47 14.25C14.79 14.86 15.15 15.44 15.54 15.99C15.57 16 15.6 16.01 15.63 16C17.35 15.47 19.08 14.67 20.88 13.35C20.9 13.34 20.91 13.32 20.91 13.3C21.35 8.77 20.18 4.84 17.81 1.35C17.8 1.34 17.79 1.33 17.77 1.33ZM7.02 10.91C5.99 10.91 5.13 9.96 5.13 8.79C5.13 7.62 5.97 6.67 7.02 6.67C8.08 6.67 8.92 7.63 8.91 8.79C8.91 9.96 8.07 10.91 7.02 10.91ZM13.99 10.91C12.96 10.91 12.1 9.96 12.1 8.79C12.1 7.62 12.94 6.67 13.99 6.67C15.05 6.67 15.89 7.63 15.88 8.79C15.88 9.96 15.05 10.91 13.99 10.91Z" fill="white"/>
</svg>
