<svg width="71" height="24" viewBox="0 0 71 24" fill="none" xmlns="http://www.w3.org/2000/svg">
<g filter="url(#filter0_b_87_131)">
<rect x="0.5" width="70" height="24" rx="12" fill="url(#paint0_radial_87_131)" fill-opacity="0.2"/>
<rect x="1" y="0.5" width="69" height="23" rx="11.5" stroke="url(#paint1_radial_87_131)"/>
<rect x="1" y="0.5" width="69" height="23" rx="11.5" stroke="url(#paint2_radial_87_131)"/>
<path d="M25.5 14.5V13.875H26.125V8.875H25.5V8.25H23V8.875H22.375V13.875H23V14.5H25.5ZM22.375 15.75V15.125H21.75V14.5H21.125V8.25H21.75V7.625H22.375V7H26.125V7.625H26.75V8.25H27.375V14.5H26.75V15.125H26.125V15.75H22.375ZM33 14.5V13.875H33.625V10.75H33V10.125H30.5V10.75H29.875V13.875H30.5V14.5H33ZM28.625 17V8.875H29.875V9.5H30.5V8.875H33.625V9.5H34.25V10.125H34.875V14.5H34.25V15.125H33.625V15.75H30.5V15.125H29.875V17H28.625ZM41.125 12V10.75H40.5V10.125H38V10.75H37.375V12H41.125ZM37.375 15.75V15.125H36.75V14.5H36.125V10.125H36.75V9.5H37.375V8.875H41.125V9.5H41.75V10.125H42.375V13.25H37.375V13.875H38V14.5H42.375V15.75H37.375ZM43.625 15.75V8.875H44.875V9.5H45.5V8.875H48.625V9.5H49.25V10.125H49.875V15.75H48.625V10.75H48V10.125H45.5V10.75H44.875V15.75H43.625Z" fill="#8051F1"/>
</g>
<defs>
<filter id="filter0_b_87_131" x="-50.7103" y="-51.2103" width="172.421" height="126.421" filterUnits="userSpaceOnUse" color-interpolation-filters="sRGB">
<feFlood flood-opacity="0" result="BackgroundImageFix"/>
<feGaussianBlur in="BackgroundImageFix" stdDeviation="25.6051"/>
<feComposite in2="SourceAlpha" operator="in" result="effect1_backgroundBlur_87_131"/>
<feBlend mode="normal" in="SourceGraphic" in2="effect1_backgroundBlur_87_131" result="shape"/>
</filter>
<radialGradient id="paint0_radial_87_131" cx="0" cy="0" r="1" gradientUnits="userSpaceOnUse" gradientTransform="translate(11.2236 5.04989) rotate(18.7925) scale(66.6633 44.0548)">
<stop stop-color="#8051F1"/>
<stop offset="0.770833" stop-color="#8051F1" stop-opacity="0.223958"/>
<stop offset="1" stop-color="#8051F1" stop-opacity="0"/>
</radialGradient>
<radialGradient id="paint1_radial_87_131" cx="0" cy="0" r="1" gradientUnits="userSpaceOnUse" gradientTransform="translate(-9.12842 -2.96747) rotate(17.2702) scale(58.9211 66.1387)">
<stop stop-color="#AC8AFF"/>
<stop offset="1" stop-color="#AC8AFF" stop-opacity="0"/>
</radialGradient>
<radialGradient id="paint2_radial_87_131" cx="0" cy="0" r="1" gradientUnits="userSpaceOnUse" gradientTransform="translate(76.2953 27.0195) rotate(-159.856) scale(56.2365 66.4955)">
<stop stop-color="#8051F1"/>
<stop offset="1" stop-color="#8051F1" stop-opacity="0"/>
</radialGradient>
</defs>
</svg>
